# xmcd
#
# Track frame offsets: 
#        150
#        17692
#        40705
#        62000
#        81635
#        103446
#        123403
#        143587
#        164281
#        183509
#        203985
#        225790
#        246007
#        267746
#        290733
#        312117
#        334536
#
# Disc length: 4773 seconds
#
# Revision: 1
# Processed by: cddbd v1.5.2PL0 Copyright (c) Steve Scherf et al.
# Submitted via: ExactAudioCopy v0.99pb3
#
DISCID=f412a311
DTITLE=Webbie - Savage Life [Chopped and Screwed]
DYEAR=2005
DGENRE=Screwed and Chopped
TTITLE0=G-Shit
TTITLE1=Crank It Up
TTITLE2=Give Me That (feat. Bun B)
TTITLE3=Full Of Dat Shit (feat. Lil' Boosie)
TTITLE4=Like That
TTITLE5=Retarded
TTITLE6=Laid Way Back
TTITLE7=I Got That (feat. Lil' Boosie)
TTITLE8=Back Up (feat. Lil' Boosie)
TTITLE9=Bad Bitch
TTITLE10=Gutta Bitch
TTITLE11=Mind Ya' Business
TTITLE12=How U Ridin'
TTITLE13=What Is It
TTITLE14=Come Here Bitch (feat. Mannie Fresh)
TTITLE15=Gotta Show Me U Worth It (feat. B.G.)
TTITLE16=U Don't Want That (feat. Lil' Boosie and Big Head)
EXTD=
EXTT0=
EXTT1=
EXTT2=
EXTT3=
EXTT4=
EXTT5=
EXTT6=
EXTT7=
EXTT8=
EXTT9=
EXTT10=
EXTT11=
EXTT12=
EXTT13=
EXTT14=
EXTT15=
EXTT16=
PLAYORDER=
